<svg xmlns="http://www.w3.org/2000/svg" xmlns:xlink="http://www.w3.org/1999/xlink" width="200" zoomAndPan="magnify" viewBox="0 0 150 74.999997" height="100" preserveAspectRatio="xMidYMid meet" version="1.0"><defs><g/></defs><g fill="#2b46bd" fill-opacity="1"><g transform="translate(13.7025, 52.321471)"><g><path d="M 11.765625 -22.046875 C 14.628906 -22.046875 16.820312 -21.332031 18.34375 -19.90625 C 19.863281 -18.476562 20.625 -16.363281 20.625 -13.5625 L 20.625 0 L 17.796875 0 L 17.796875 -3.40625 C 17.128906 -2.269531 16.148438 -1.382812 14.859375 -0.75 C 13.578125 -0.113281 12.050781 0.203125 10.28125 0.203125 C 7.832031 0.203125 5.882812 -0.375 4.4375 -1.53125 C 3 -2.695312 2.28125 -4.238281 2.28125 -6.15625 C 2.28125 -8.007812 2.953125 -9.503906 4.296875 -10.640625 C 5.648438 -11.785156 7.796875 -12.359375 10.734375 -12.359375 L 17.671875 -12.359375 L 17.671875 -13.6875 C 17.671875 -15.570312 17.144531 -17.003906 16.09375 -17.984375 C 15.039062 -18.972656 13.503906 -19.46875 11.484375 -19.46875 C 10.097656 -19.46875 8.765625 -19.238281 7.484375 -18.78125 C 6.210938 -18.320312 5.117188 -17.691406 4.203125 -16.890625 L 2.875 -19.09375 C 3.976562 -20.03125 5.304688 -20.753906 6.859375 -21.265625 C 8.410156 -21.785156 10.046875 -22.046875 11.765625 -22.046875 Z M 10.734375 -2.125 C 12.398438 -2.125 13.828125 -2.503906 15.015625 -3.265625 C 16.203125 -4.023438 17.085938 -5.128906 17.671875 -6.578125 L 17.671875 -10.15625 L 10.8125 -10.15625 C 7.070312 -10.15625 5.203125 -8.847656 5.203125 -6.234375 C 5.203125 -4.960938 5.6875 -3.957031 6.65625 -3.21875 C 7.625 -2.488281 8.984375 -2.125 10.734375 -2.125 Z M 10.734375 -2.125 "/></g></g></g><g fill="#2b46bd" fill-opacity="1"><g transform="translate(41.567606, 52.321471)"><g><path d="M 6.953125 -17.59375 C 7.640625 -19.0625 8.671875 -20.171875 10.046875 -20.921875 C 11.421875 -21.671875 13.117188 -22.046875 15.140625 -22.046875 L 15.140625 -19.171875 L 14.4375 -19.21875 C 12.132812 -19.21875 10.332031 -18.507812 9.03125 -17.09375 C 7.726562 -15.675781 7.078125 -13.691406 7.078125 -11.140625 L 7.078125 0 L 4.125 0 L 4.125 -21.875 L 6.953125 -21.875 Z M 6.953125 -17.59375 "/></g></g></g><g fill="#2b46bd" fill-opacity="1"><g transform="translate(61.572635, 52.321471)"><g><path d="M 15.640625 -1.328125 C 15.085938 -0.828125 14.398438 -0.445312 13.578125 -0.1875 C 12.765625 0.0703125 11.910156 0.203125 11.015625 0.203125 C 8.960938 0.203125 7.378906 -0.347656 6.265625 -1.453125 C 5.160156 -2.566406 4.609375 -4.132812 4.609375 -6.15625 L 4.609375 -19.375 L 0.703125 -19.375 L 0.703125 -21.875 L 4.609375 -21.875 L 4.609375 -26.65625 L 7.5625 -26.65625 L 7.5625 -21.875 L 14.21875 -21.875 L 14.21875 -19.375 L 7.5625 -19.375 L 7.5625 -6.328125 C 7.5625 -5.023438 7.890625 -4.03125 8.546875 -3.34375 C 9.203125 -2.664062 10.140625 -2.328125 11.359375 -2.328125 C 11.960938 -2.328125 12.546875 -2.421875 13.109375 -2.609375 C 13.679688 -2.804688 14.175781 -3.085938 14.59375 -3.453125 Z M 15.640625 -1.328125 "/></g></g></g><g fill="#2b46bd" fill-opacity="1"><g transform="translate(81.785607, 52.321471)"><g><path d="M 4.125 -21.875 L 7.078125 -21.875 L 7.078125 0 L 4.125 0 Z M 5.609375 -26.65625 C 5.003906 -26.65625 4.492188 -26.863281 4.078125 -27.28125 C 3.660156 -27.695312 3.453125 -28.195312 3.453125 -28.78125 C 3.453125 -29.332031 3.660156 -29.816406 4.078125 -30.234375 C 4.492188 -30.648438 5.003906 -30.859375 5.609375 -30.859375 C 6.222656 -30.859375 6.738281 -30.65625 7.15625 -30.25 C 7.570312 -29.851562 7.78125 -29.378906 7.78125 -28.828125 C 7.78125 -28.210938 7.570312 -27.695312 7.15625 -27.28125 C 6.738281 -26.863281 6.222656 -26.65625 5.609375 -26.65625 Z M 5.609375 -26.65625 "/></g></g></g><g fill="#2b46bd" fill-opacity="1"><g transform="translate(96.301047, 52.321471)"><g><path d="M 11.359375 -28.578125 C 10.078125 -28.578125 9.109375 -28.226562 8.453125 -27.53125 C 7.804688 -26.84375 7.484375 -25.816406 7.484375 -24.453125 L 7.484375 -21.875 L 14.21875 -21.875 L 14.21875 -19.375 L 7.5625 -19.375 L 7.5625 0 L 4.609375 0 L 4.609375 -19.375 L 0.703125 -19.375 L 0.703125 -21.875 L 4.609375 -21.875 L 4.609375 -24.578125 C 4.609375 -26.578125 5.179688 -28.160156 6.328125 -29.328125 C 7.484375 -30.492188 9.117188 -31.078125 11.234375 -31.078125 C 12.066406 -31.078125 12.867188 -30.957031 13.640625 -30.71875 C 14.421875 -30.476562 15.070312 -30.140625 15.59375 -29.703125 L 14.59375 -27.5 C 13.738281 -28.21875 12.660156 -28.578125 11.359375 -28.578125 Z M 11.359375 -28.578125 "/></g></g></g><g fill="#2b46bd" fill-opacity="1"><g transform="translate(113.727637, 52.321471)"><g><path d="M 22.5 -21.875 L 11.5625 2.625 C 10.675781 4.675781 9.648438 6.128906 8.484375 6.984375 C 7.316406 7.847656 5.914062 8.28125 4.28125 8.28125 C 3.226562 8.28125 2.242188 8.113281 1.328125 7.78125 C 0.410156 7.445312 -0.378906 6.945312 -1.046875 6.28125 L 0.328125 4.078125 C 1.441406 5.179688 2.773438 5.734375 4.328125 5.734375 C 5.328125 5.734375 6.175781 5.457031 6.875 4.90625 C 7.582031 4.351562 8.242188 3.410156 8.859375 2.078125 L 9.8125 -0.046875 L 0.046875 -21.875 L 3.125 -21.875 L 11.359375 -3.28125 L 19.59375 -21.875 Z M 13.6875 -30.453125 L 17.640625 -30.453125 L 10.90625 -25.296875 L 7.984375 -25.296875 Z M 13.6875 -30.453125 "/></g></g></g></svg>